<svg width="55" height="55" viewBox="0 0 55 55" fill="none" xmlns="http://www.w3.org/2000/svg">
<path d="M0 26C0 11.6406 11.6406 0 26 0H29C43.3594 0 55 11.6406 55 26V29C55 43.3594 43.3594 55 29 55H26C11.6406 55 0 43.3594 0 29V26Z" fill="#F9F5FF"/>
<path d="M8.46143 27.5C8.46143 16.9854 16.9852 8.46155 27.4999 8.46155C38.0145 8.46155 46.5383 16.9854 46.5383 27.5C46.5383 38.0147 38.0145 46.5385 27.4999 46.5385C16.9852 46.5385 8.46143 38.0147 8.46143 27.5Z" fill="#F4EBFF"/>
<path fill-rule="evenodd" clip-rule="evenodd" d="M17.9834 34.877C18.5493 34.877 18.8647 34.5986 19.0874 33.875L19.9595 31.2588H24.5425L25.4146 33.875C25.6279 34.5894 25.9619 34.877 26.5278 34.877C27.1309 34.877 27.5298 34.5244 27.5298 33.9678C27.5298 33.7358 27.4741 33.4854 27.3721 33.1792L23.8931 23.3359C23.5776 22.3989 23.123 22 22.2788 22C21.4346 22 20.98 22.4082 20.6553 23.3359L17.1763 33.1792C17.0557 33.5317 17 33.7729 17 33.9956C17 34.5337 17.3989 34.877 17.9834 34.877ZM20.4604 29.6445L22.2046 24.2915H22.3066L24.0415 29.6445H20.4604Z" fill="#7F56D9"/>
<path fill-rule="evenodd" clip-rule="evenodd" d="M34.7104 33.4946H34.8125V33.9307C34.8589 34.5151 35.2207 34.8584 35.7866 34.8584C36.4268 34.8584 36.7886 34.4502 36.7886 33.7451V28.1323C36.7886 25.9985 35.4062 24.811 32.9292 24.811C31.9087 24.811 31.1294 24.9873 30.5356 25.312C29.71 25.7573 29.3203 26.314 29.3203 26.8799C29.3203 27.3252 29.6172 27.6313 30.0718 27.6313C30.4243 27.6313 30.6655 27.5386 30.916 27.2974C31.4819 26.7222 32.02 26.4438 32.7993 26.4438C34.0518 26.4438 34.729 27.019 34.729 28.123V28.9951H32.2798C30.0903 29.0044 28.7729 30.1084 28.7729 31.9175C28.7729 33.6987 30.0625 34.9048 31.9736 34.9048C33.189 34.9048 34.1724 34.4038 34.7104 33.4946ZM30.8418 31.8154C30.8418 30.9155 31.4727 30.4053 32.5674 30.4053H34.729V31.4629C34.729 32.5205 33.8105 33.3369 32.6138 33.3369C31.5562 33.3369 30.8418 32.7246 30.8418 31.8154Z" fill="#7F56D9"/>
</svg>
