<svg width="55" height="55" viewBox="0 0 55 55" fill="none" xmlns="http://www.w3.org/2000/svg">
<path d="M0 26C0 11.6406 11.6406 0 26 0H29C43.3594 0 55 11.6406 55 26V29C55 43.3594 43.3594 55 29 55H26C11.6406 55 0 43.3594 0 29V26Z" fill="#F9F5FF"/>
<path d="M8.46143 27.5C8.46143 16.9854 16.9852 8.46155 27.4999 8.46155C38.0145 8.46155 46.5383 16.9854 46.5383 27.5C46.5383 38.0147 38.0145 46.5385 27.4999 46.5385C16.9852 46.5385 8.46143 38.0147 8.46143 27.5Z" fill="#F4EBFF"/>
<path fill-rule="evenodd" clip-rule="evenodd" d="M24 29.3C24 28.8029 24.4029 28.4 24.9 28.4H28.9C29.3971 28.4 29.8 28.8029 29.8 29.3C29.8 29.7971 29.3971 30.2 28.9 30.2H24.9C24.4029 30.2 24 29.7971 24 29.3Z" fill="#7F56D9"/>
<path fill-rule="evenodd" clip-rule="evenodd" d="M19.9 19C18.2984 19 17 20.2984 17 21.9V23.9C17 25.0135 17.9295 25.8 19 25.8V33.9C19 35.5016 20.2984 36.8 21.9 36.8H31.9C33.5016 36.8 34.8 35.5016 34.8 33.9V25.8C35.8705 25.8 36.8 25.0135 36.8 23.9V21.9C36.8 20.2984 35.5016 19 33.9 19H19.9ZM19.9 20.8C19.2925 20.8 18.8 21.2925 18.8 21.9V23.9C18.8 23.9552 18.8448 24 18.9 24H34.9C34.9552 24 35 23.9552 35 23.9V21.9C35 21.2925 34.5075 20.8 33.9 20.8H19.9ZM21.9 35C21.2925 35 20.8 34.5075 20.8 33.9V25.8H33V33.9C33 34.5075 32.5075 35 31.9 35H21.9Z" fill="#7F56D9"/>
<path fill-rule="evenodd" clip-rule="evenodd" d="M24.9 28.4C24.4029 28.4 24 28.8029 24 29.3C24 29.7971 24.4029 30.2 24.9 30.2H28.9C29.3971 30.2 29.8 29.7971 29.8 29.3C29.8 28.8029 29.3971 28.4 28.9 28.4H24.9Z" fill="#7F56D9"/>
</svg>
