<svg width="55" height="55" viewBox="0 0 55 55" fill="none" xmlns="http://www.w3.org/2000/svg">
<path d="M0 26C0 11.6406 11.6406 0 26 0H29C43.3594 0 55 11.6406 55 26V29C55 43.3594 43.3594 55 29 55H26C11.6406 55 0 43.3594 0 29V26Z" fill="#F9F5FF"/>
<path d="M8.46143 27.5C8.46143 16.9854 16.9852 8.46155 27.4999 8.46155C38.0145 8.46155 46.5383 16.9854 46.5383 27.5C46.5383 38.0147 38.0145 46.5385 27.4999 46.5385C16.9852 46.5385 8.46143 38.0147 8.46143 27.5Z" fill="#F4EBFF"/>
<path d="M26.2045 26.2545C26.2045 25.8253 26.5525 25.4773 26.9818 25.4773H28.0182C28.4475 25.4773 28.7955 25.8253 28.7955 26.2545C28.7955 26.6838 28.4475 27.0318 28.0182 27.0318H26.9818C26.5525 27.0318 26.2045 26.6838 26.2045 26.2545Z" fill="#7F56D9"/>
<path d="M26.2045 30.5727C26.2045 30.1435 26.5525 29.7955 26.9818 29.7955H28.0182C28.4475 29.7955 28.7955 30.1435 28.7955 30.5727C28.7955 31.002 28.4475 31.35 28.0182 31.35H26.9818C26.5525 31.35 26.2045 31.002 26.2045 30.5727Z" fill="#7F56D9"/>
<path fill-rule="evenodd" clip-rule="evenodd" d="M19.7273 24.1818C19.7273 23.7525 20.0753 23.4045 20.5045 23.4045H22.4692C22.8723 22.7712 23.3917 22.2192 23.9974 21.7784L22.5458 20.3269C22.2423 20.0233 22.2423 19.5312 22.5458 19.2277C22.8494 18.9241 23.3415 18.9241 23.6451 19.2277L25.4283 21.0109C26.0735 20.7716 26.7715 20.6409 27.5 20.6409C28.2285 20.6409 28.9265 20.7716 29.5717 21.0109L31.3549 19.2277C31.6585 18.9241 32.1506 18.9241 32.4542 19.2277C32.7577 19.5312 32.7577 20.0233 32.4542 20.3269L31.0026 21.7784C31.6083 22.2192 32.1277 22.7712 32.5308 23.4045H34.4955C34.9247 23.4045 35.2727 23.7525 35.2727 24.1818C35.2727 24.6111 34.9247 24.9591 34.4955 24.9591H33.2303C33.3793 25.4804 33.4591 26.0309 33.4591 26.6V27.7227H36.2227C36.652 27.7227 37 28.0707 37 28.5C37 28.9293 36.652 29.2773 36.2227 29.2773H33.4591V30.2273C33.4591 30.8596 33.3606 31.469 33.1781 32.0409H34.4955C34.9247 32.0409 35.2727 32.3889 35.2727 32.8182C35.2727 33.2474 34.9247 33.5954 34.4955 33.5954H32.4166C31.3426 35.1601 29.5412 36.1864 27.5 36.1864C25.4588 36.1864 23.6574 35.1601 22.5834 33.5954H20.5045C20.0753 33.5954 19.7273 33.2474 19.7273 32.8182C19.7273 32.3889 20.0753 32.0409 20.5045 32.0409H21.8219C21.6394 31.469 21.5409 30.8596 21.5409 30.2273V29.2773H18.7773C18.348 29.2773 18 28.9293 18 28.5C18 28.0707 18.348 27.7227 18.7773 27.7227H21.5409V26.6C21.5409 26.0309 21.6207 25.4804 21.7697 24.9591H20.5045C20.0753 24.9591 19.7273 24.6111 19.7273 24.1818ZM23.0955 26.6C23.0955 24.1674 25.0674 22.1954 27.5 22.1954C29.9326 22.1954 31.9045 24.1674 31.9045 26.6V30.2273C31.9045 32.6598 29.9326 34.6318 27.5 34.6318C25.0674 34.6318 23.0955 32.6598 23.0955 30.2273V26.6Z" fill="#7F56D9"/>
<path fill-rule="evenodd" clip-rule="evenodd" d="M26.2045 26.2545C26.2045 25.8253 26.5525 25.4773 26.9818 25.4773H28.0182C28.4475 25.4773 28.7955 25.8253 28.7955 26.2545C28.7955 26.6838 28.4475 27.0318 28.0182 27.0318H26.9818C26.5525 27.0318 26.2045 26.6838 26.2045 26.2545ZM26.2045 30.5727C26.2045 30.1435 26.5525 29.7955 26.9818 29.7955H28.0182C28.4475 29.7955 28.7955 30.1435 28.7955 30.5727C28.7955 31.002 28.4475 31.35 28.0182 31.35H26.9818C26.5525 31.35 26.2045 31.002 26.2045 30.5727Z" fill="#7F56D9"/>
</svg>
