<svg width="55" height="55" viewBox="0 0 55 55" fill="none" xmlns="http://www.w3.org/2000/svg">
<path d="M0 26C0 11.6406 11.6406 0 26 0H29C43.3594 0 55 11.6406 55 26V29C55 43.3594 43.3594 55 29 55H26C11.6406 55 0 43.3594 0 29V26Z" fill="#F9F5FF"/>
<path d="M8.46143 27.5C8.46143 16.9854 16.9852 8.46155 27.4999 8.46155C38.0145 8.46155 46.5383 16.9854 46.5383 27.5C46.5383 38.0147 38.0145 46.5385 27.4999 46.5385C16.9852 46.5385 8.46143 38.0147 8.46143 27.5Z" fill="#F4EBFF"/>
<path fill-rule="evenodd" clip-rule="evenodd" d="M23.9 21.4H23.7C22.8451 21.4 22.258 21.4007 21.8029 21.4379C21.3583 21.4742 21.1195 21.5408 20.9466 21.6289C20.5515 21.8302 20.2302 22.1515 20.0289 22.5466C19.9408 22.7194 19.8742 22.9583 19.8379 23.4029C19.8007 23.858 19.8 24.445 19.8 25.3V31.7C19.8 32.5549 19.8007 33.142 19.8379 33.5971C19.8742 34.0417 19.9408 34.2805 20.0289 34.4534C20.2302 34.8485 20.5515 35.1698 20.9466 35.3711C21.1195 35.4592 21.3583 35.5258 21.8029 35.5621C22.258 35.5993 22.8451 35.6 23.7 35.6H30.1C30.9549 35.6 31.542 35.5993 31.9971 35.5621C32.4417 35.5258 32.6805 35.4592 32.8534 35.3711C33.2485 35.1698 33.5698 34.8485 33.7711 34.4534C33.8592 34.2805 33.9258 34.0417 33.9621 33.5971C33.9993 33.142 34 32.5549 34 31.7V25.3C34 24.445 33.9993 23.858 33.9621 23.4029C33.9258 22.9583 33.8592 22.7194 33.7711 22.5466C33.5698 22.1515 33.2485 21.8302 32.8534 21.6289C32.6805 21.5408 32.4417 21.4742 31.9971 21.4379C31.542 21.4007 30.9549 21.4 30.1 21.4H29.9H23.9ZM29.8907 19.6H30.1L30.1377 19.6C30.9458 19.6 31.6066 19.6 32.1437 19.6438C32.6996 19.6893 33.2017 19.7861 33.6706 20.0251C34.4044 20.399 35.001 20.9956 35.3749 21.7294C35.6138 22.1983 35.7107 22.7004 35.7561 23.2563C35.8 23.7934 35.8 24.4542 35.8 25.2623V25.3V31.7V31.7377C35.8 32.5457 35.8 33.2066 35.7561 33.7437C35.7107 34.2996 35.6138 34.8017 35.3749 35.2705C35.001 36.0044 34.4044 36.601 33.6706 36.9749C33.2017 37.2138 32.6996 37.3107 32.1437 37.3561C31.6066 37.4 30.9458 37.4 30.1377 37.4H30.1H23.7H23.6623C22.8542 37.4 22.1934 37.4 21.6563 37.3561C21.1004 37.3107 20.5983 37.2138 20.1294 36.9749C19.3956 36.601 18.799 36.0044 18.4251 35.2705C18.1862 34.8017 18.0893 34.2996 18.0439 33.7437C18 33.2066 18 32.5458 18 31.7377V31.7V25.3V25.2623C18 24.4542 18 23.7934 18.0439 23.2563C18.0893 22.7004 18.1862 22.1983 18.4251 21.7294C18.799 20.9956 19.3956 20.399 20.1294 20.0251C20.5983 19.7861 21.1004 19.6893 21.6563 19.6438C22.1934 19.6 22.8542 19.6 23.6623 19.6L23.7 19.6H23.9092C23.9241 19.252 23.9628 19.0167 24.0635 18.819C24.2073 18.5368 24.4368 18.3073 24.719 18.1635C25.0399 18 25.4599 18 26.3 18H27.5C28.3401 18 28.7601 18 29.081 18.1635C29.3632 18.3073 29.5927 18.5368 29.7365 18.819C29.8372 19.0167 29.8759 19.252 29.8907 19.6ZM25.9 23.6C25.4029 23.6 25 24.0029 25 24.5C25 24.997 25.4029 25.4 25.9 25.4H30.9C31.3971 25.4 31.8 24.997 31.8 24.5C31.8 24.0029 31.3971 23.6 30.9 23.6H25.9ZM25 28.5C25 28.0029 25.4029 27.6 25.9 27.6H30.9C31.3971 27.6 31.8 28.0029 31.8 28.5C31.8 28.997 31.3971 29.4 30.9 29.4H25.9C25.4029 29.4 25 28.997 25 28.5ZM25.9 31.6C25.4029 31.6 25 32.0029 25 32.5C25 32.997 25.4029 33.4 25.9 33.4H28.9C29.3971 33.4 29.8 32.997 29.8 32.5C29.8 32.0029 29.3971 31.6 28.9 31.6H25.9ZM21.9 24.5C21.9 24.0029 22.3029 23.6 22.8 23.6C23.2971 23.6 23.7 24.0029 23.7 24.5C23.7 24.997 23.2971 25.4 22.8 25.4C22.3029 25.4 21.9 24.997 21.9 24.5ZM22.8 27.6C22.3029 27.6 21.9 28.0029 21.9 28.5C21.9 28.997 22.3029 29.4 22.8 29.4C23.2971 29.4 23.7 28.997 23.7 28.5C23.7 28.0029 23.2971 27.6 22.8 27.6ZM21.9 32.5C21.9 32.0029 22.3029 31.6 22.8 31.6C23.2971 31.6 23.7 32.0029 23.7 32.5C23.7 32.997 23.2971 33.4 22.8 33.4C22.3029 33.4 21.9 32.997 21.9 32.5Z" fill="#7F56D9"/>
</svg>
