<svg width="55" height="55" viewBox="0 0 55 55" fill="none" xmlns="http://www.w3.org/2000/svg">
<path d="M0 26C0 11.6406 11.6406 0 26 0H29C43.3594 0 55 11.6406 55 26V29C55 43.3594 43.3594 55 29 55H26C11.6406 55 0 43.3594 0 29V26Z" fill="#F9F5FF"/>
<path d="M8.46143 27.5C8.46143 16.9854 16.9852 8.46155 27.4999 8.46155C38.0145 8.46155 46.5383 16.9854 46.5383 27.5C46.5383 38.0147 38.0145 46.5385 27.4999 46.5385C16.9852 46.5385 8.46143 38.0147 8.46143 27.5Z" fill="#F4EBFF"/>
<path fill-rule="evenodd" clip-rule="evenodd" d="M28.9387 19H24.8613H24.8613C23.844 19 23.0258 19 22.3637 19.0541C21.6827 19.1097 21.0881 19.227 20.5389 19.5068C19.664 19.9526 18.9526 20.664 18.5068 21.5389C18.227 22.0881 18.1097 22.6827 18.0541 23.3637C18 24.0258 18 24.844 18 25.8613V25.8613V29.9387V29.9387C18 30.956 18 31.7742 18.0541 32.4363C18.1097 33.1173 18.227 33.712 18.5068 34.2611C18.9526 35.136 19.664 35.8474 20.5389 36.2932C21.0881 36.573 21.6827 36.6903 22.3637 36.7459C23.0258 36.8 23.844 36.8 24.8613 36.8H28.9387C29.956 36.8 30.7742 36.8 31.4363 36.7459C32.1173 36.6903 32.712 36.573 33.2611 36.2932C34.136 35.8474 34.8474 35.136 35.2932 34.2611C35.573 33.712 35.6903 33.1173 35.7459 32.4363C35.8 31.7742 35.8 30.956 35.8 29.9387V25.8613C35.8 24.844 35.8 24.0258 35.7459 23.3637C35.6903 22.6827 35.573 22.0881 35.2932 21.5389C34.8474 20.664 34.136 19.9526 33.2611 19.5068C32.712 19.227 32.1173 19.1097 31.4363 19.0541C30.7742 19 29.956 19 28.9387 19H28.9387ZM21.3561 21.1106C21.6092 20.9817 21.9406 20.8946 22.5103 20.8481C23.0905 20.8007 23.8351 20.8 24.9 20.8H28.9C29.9649 20.8 30.7095 20.8007 31.2897 20.8481C31.8594 20.8946 32.1908 20.9817 32.4439 21.1106C32.9801 21.3839 33.4161 21.8199 33.6894 22.3561C33.8183 22.6092 33.9054 22.9406 33.9519 23.5103C33.9993 24.0905 34 24.8351 34 25.9V29.9C34 30.9649 33.9993 31.7095 33.9519 32.2897C33.9054 32.8594 33.8183 33.1908 33.6894 33.4439C33.4161 33.9801 32.9801 34.4161 32.4439 34.6894C32.1908 34.8183 31.8594 34.9054 31.2897 34.9519C30.7095 34.9993 29.9649 35 28.9 35H24.9C23.8351 35 23.0905 34.9993 22.5103 34.9519C21.9406 34.9054 21.6092 34.8183 21.3561 34.6894C20.8199 34.4161 20.3839 33.9801 20.1106 33.4439C19.9817 33.1908 19.8946 32.8594 19.8481 32.2897C19.8007 31.7095 19.8 30.9649 19.8 29.9V25.9C19.8 24.8351 19.8007 24.0905 19.8481 23.5103C19.8946 22.9406 19.9817 22.6092 20.1106 22.3561C20.3839 21.8199 20.8199 21.3839 21.3561 21.1106ZM27.8 23.8C27.8 23.303 27.3971 22.9 26.9 22.9C26.4029 22.9 26 23.303 26 23.8V32C26 32.4971 26.4029 32.9 26.9 32.9C27.3971 32.9 27.8 32.4971 27.8 32V23.8ZM22.9 25.9C23.3971 25.9 23.8 26.303 23.8 26.8V32C23.8 32.4971 23.3971 32.9 22.9 32.9C22.4029 32.9 22 32.4971 22 32V26.8C22 26.303 22.4029 25.9 22.9 25.9ZM31.8 28.8C31.8 28.303 31.3971 27.9 30.9 27.9C30.4029 27.9 30 28.303 30 28.8V32C30 32.4971 30.4029 32.9 30.9 32.9C31.3971 32.9 31.8 32.4971 31.8 32V28.8Z" fill="#7F56D9"/>
</svg>
