<svg width="55" height="55" viewBox="0 0 55 55" fill="none" xmlns="http://www.w3.org/2000/svg">
<path d="M0 26C0 11.6406 11.6406 0 26 0H29C43.3594 0 55 11.6406 55 26V29C55 43.3594 43.3594 55 29 55H26C11.6406 55 0 43.3594 0 29V26Z" fill="#F9F5FF"/>
<path d="M8.46143 27.5C8.46143 16.9854 16.9852 8.46155 27.4999 8.46155C38.0145 8.46155 46.5383 16.9854 46.5383 27.5C46.5383 38.0147 38.0145 46.5385 27.4999 46.5385C16.9852 46.5385 8.46143 38.0147 8.46143 27.5Z" fill="#F4EBFF"/>
<path fill-rule="evenodd" clip-rule="evenodd" d="M22.5 36.8L22.5333 36.8C22.9248 36.8 23.2714 36.8 23.5585 36.7766C23.8643 36.7516 24.1811 36.6956 24.4896 36.5384C24.9412 36.3083 25.3083 35.9412 25.5384 35.4896C25.6956 35.1811 25.7516 34.8643 25.7766 34.5585C25.8 34.2713 25.8 33.9249 25.8 33.5334L25.8 33.5V22.3L25.8 22.2667C25.8 21.8752 25.8 21.5287 25.7766 21.2415C25.7516 20.9357 25.6956 20.6189 25.5384 20.3104C25.3083 19.8588 24.9412 19.4917 24.4896 19.2616C24.1811 19.1044 23.8643 19.0484 23.5585 19.0234C23.2714 19 22.9249 19 22.5334 19L22.5 19H21.3L21.2667 19C20.8752 19 20.5287 19 20.2415 19.0234C19.9357 19.0484 19.6189 19.1044 19.3104 19.2616C18.8588 19.4917 18.4917 19.8588 18.2616 20.3104C18.1044 20.6189 18.0484 20.9357 18.0234 21.2415C18 21.5287 18 21.8751 18 22.2666L18 22.3L18 33.5L18 33.5333C18 33.9248 18 34.2713 18.0234 34.5585C18.0484 34.8643 18.1044 35.1811 18.2616 35.4896C18.4917 35.9412 18.8588 36.3083 19.3104 36.5384C19.6189 36.6956 19.9357 36.7516 20.2415 36.7766C20.5286 36.8 20.8751 36.8 21.2666 36.8L21.3 36.8H22.5ZM23.6724 34.9346C23.66 34.9409 23.6064 34.9667 23.4119 34.9826C23.2069 34.9993 22.9349 35 22.5 35H21.3C20.8651 35 20.5931 34.9993 20.3881 34.9826C20.1936 34.9667 20.14 34.9409 20.1276 34.9346C20.0147 34.8771 19.9229 34.7853 19.8654 34.6724C19.8591 34.66 19.8333 34.6064 19.8175 34.4119C19.8007 34.2069 19.8 33.9349 19.8 33.5L19.8 22.3C19.8 21.8651 19.8007 21.5931 19.8175 21.3881C19.8333 21.1936 19.8591 21.14 19.8654 21.1276C19.9229 21.0147 20.0147 20.9229 20.1276 20.8654C20.14 20.8591 20.1936 20.8333 20.3881 20.8175C20.5931 20.8007 20.8651 20.8 21.3 20.8H22.5C22.9349 20.8 23.2069 20.8007 23.4119 20.8175C23.6064 20.8333 23.66 20.8591 23.6724 20.8654C23.7853 20.9229 23.8771 21.0147 23.9346 21.1276C23.9409 21.14 23.9667 21.1936 23.9826 21.3881C23.9993 21.5931 24 21.8651 24 22.3L24 33.5C24 33.9349 23.9993 34.2069 23.9826 34.4119C23.9667 34.6064 23.9409 34.66 23.9346 34.6724C23.8771 34.7853 23.7853 34.8771 23.6724 34.9346ZM32.5333 26.8L32.5 26.8H31.3L31.2667 26.8C30.8752 26.8 30.5287 26.8 30.2415 26.7766C29.9357 26.7516 29.6189 26.6956 29.3104 26.5384C28.8588 26.3083 28.4917 25.9412 28.2616 25.4896C28.1044 25.1811 28.0484 24.8643 28.0234 24.5585C28 24.2713 28 23.9248 28 23.5333L28 23.5V22.3L28 22.2667C28 21.8752 28 21.5287 28.0234 21.2415C28.0484 20.9357 28.1044 20.6189 28.2616 20.3104C28.4917 19.8588 28.8588 19.4917 29.3104 19.2616C29.6189 19.1044 29.9357 19.0484 30.2415 19.0234C30.5287 19 30.8751 19 31.2666 19L31.3 19L32.5 19L32.5333 19C32.9248 19 33.2714 19 33.5585 19.0234C33.8643 19.0484 34.1811 19.1044 34.4896 19.2616C34.9412 19.4917 35.3083 19.8588 35.5384 20.3104C35.6956 20.6189 35.7516 20.9357 35.7766 21.2415C35.8 21.5287 35.8 21.8752 35.8 22.2667L35.8 22.3V23.5L35.8 23.5333C35.8 23.9248 35.8 24.2713 35.7766 24.5585C35.7516 24.8643 35.6956 25.1811 35.5384 25.4896C35.3083 25.9412 34.9412 26.3083 34.4896 26.5384C34.1811 26.6956 33.8643 26.7516 33.5585 26.7766C33.2713 26.8 32.9248 26.8 32.5333 26.8ZM33.4119 24.9826C33.6064 24.9667 33.66 24.9409 33.6724 24.9346C33.7853 24.8771 33.8771 24.7853 33.9346 24.6724C33.9409 24.66 33.9667 24.6064 33.9826 24.4119C33.9993 24.2069 34 23.9349 34 23.5V22.3C34 21.8651 33.9993 21.5931 33.9826 21.3881C33.9667 21.1936 33.9409 21.14 33.9346 21.1276C33.8771 21.0147 33.7853 20.9229 33.6724 20.8654C33.66 20.8591 33.6064 20.8333 33.4119 20.8175C33.2069 20.8007 32.9349 20.8 32.5 20.8L31.3 20.8C30.8651 20.8 30.5931 20.8007 30.3881 20.8175C30.1936 20.8333 30.14 20.8591 30.1276 20.8654C30.0147 20.9229 29.9229 21.0147 29.8654 21.1276C29.8591 21.14 29.8333 21.1936 29.8174 21.3881C29.8007 21.5931 29.8 21.8651 29.8 22.3V23.5C29.8 23.9349 29.8007 24.2069 29.8174 24.4119C29.8333 24.6064 29.8591 24.66 29.8654 24.6724C29.9229 24.7853 30.0147 24.8771 30.1276 24.9346C30.14 24.9409 30.1936 24.9667 30.3881 24.9826C30.5931 24.9993 30.8651 25 31.3 25L32.5 25C32.9349 25 33.2069 24.9993 33.4119 24.9826ZM32.5 36.8L32.5333 36.8C32.9248 36.8 33.2714 36.8 33.5585 36.7766C33.8643 36.7516 34.1811 36.6956 34.4896 36.5384C34.9412 36.3083 35.3083 35.9412 35.5384 35.4896C35.6956 35.1811 35.7516 34.8643 35.7766 34.5585C35.8 34.2713 35.8 33.9248 35.8 33.5333L35.8 33.5V32.3L35.8 32.2667C35.8 31.8752 35.8 31.5287 35.7766 31.2415C35.7516 30.9357 35.6956 30.6189 35.5384 30.3104C35.3083 29.8588 34.9412 29.4917 34.4896 29.2616C34.1811 29.1044 33.8643 29.0484 33.5585 29.0234C33.2713 29 32.9249 29 32.5334 29L32.5 29H31.3L31.2667 29C30.8752 29 30.5287 29 30.2415 29.0234C29.9357 29.0484 29.6189 29.1044 29.3104 29.2616C28.8588 29.4917 28.4917 29.8588 28.2616 30.3104C28.1044 30.6189 28.0484 30.9357 28.0234 31.2415C28 31.5287 28 31.8752 28 32.2667L28 32.3V33.5L28 33.5333C28 33.9248 28 34.2713 28.0234 34.5585C28.0484 34.8643 28.1044 35.1811 28.2616 35.4896C28.4917 35.9412 28.8588 36.3083 29.3104 36.5384C29.6189 36.6956 29.9357 36.7516 30.2415 36.7766C30.5286 36.8 30.8751 36.8 31.2666 36.8L31.3 36.8H32.5ZM33.6724 34.9346C33.66 34.9409 33.6064 34.9667 33.4119 34.9826C33.2069 34.9993 32.9349 35 32.5 35H31.3C30.8651 35 30.5931 34.9993 30.3881 34.9826C30.1936 34.9667 30.14 34.9409 30.1276 34.9346C30.0147 34.8771 29.9229 34.7853 29.8654 34.6724C29.8591 34.66 29.8333 34.6064 29.8174 34.4119C29.8007 34.2069 29.8 33.9349 29.8 33.5V32.3C29.8 31.8651 29.8007 31.5931 29.8174 31.3881C29.8333 31.1936 29.8591 31.14 29.8654 31.1276C29.9229 31.0147 30.0147 30.9229 30.1276 30.8654C30.14 30.8591 30.1936 30.8333 30.3881 30.8174C30.5931 30.8007 30.8651 30.8 31.3 30.8H32.5C32.9349 30.8 33.2069 30.8007 33.4119 30.8174C33.6064 30.8333 33.66 30.8591 33.6724 30.8654C33.7853 30.9229 33.8771 31.0147 33.9346 31.1276C33.9409 31.14 33.9667 31.1936 33.9826 31.3881C33.9993 31.5931 34 31.8651 34 32.3V33.5C34 33.9349 33.9993 34.2069 33.9826 34.4119C33.9667 34.6064 33.9409 34.66 33.9346 34.6724C33.8771 34.7853 33.7853 34.8771 33.6724 34.9346Z" fill="#7F56D9"/>
</svg>
