<svg width="1000" height="600" viewBox="0 0 1000 600" fill="none" xmlns="http://www.w3.org/2000/svg">
<g clip-path="url(#clip0_91_2)">
<path d="M0 20C0 8.9543 8.9543 0 20 0H980C991.046 0 1000 8.95431 1000 20V668.966H0L0 20Z" fill="black"/>
<mask id="mask0_91_2" style="mask-type:alpha" maskUnits="userSpaceOnUse" x="12" y="12" width="976" height="588">
<path d="M12.003 21.8956C12.003 16.4304 16.8878 12 22.9136 12H449.95C451.593 12 452.93 13.2083 452.93 14.6988V20C452.93 22.4842 455.151 25 457.89 25H542.11C544.849 25 547.07 22.4842 547.07 20V14.6988C547.07 13.2083 548.407 12 550.05 12H977.089C983.115 12 988 16.4304 988 21.8956C988 209.312 988 412.584 988 600H12.0032C11.9961 412.584 12.003 209.312 12.003 21.8956Z" fill="#FF3E3E"/>
</mask>
<g mask="url(#mask0_91_2)">
<rect x="12.0031" y="12" width="975.997" height="588" rx="1" fill="white"/>
</g>
</g>
<defs>
<clipPath id="clip0_91_2">
<rect width="1000" height="600" fill="white"/>
</clipPath>
</defs>
</svg>
